<svg width="105" height="105" viewBox="0 0 105 105" fill="none" xmlns="http://www.w3.org/2000/svg">
<path d="M73.6816 33.75H31.3184L52.5 51.9058L73.6816 33.75Z" fill="#8C52FF"/>
<path d="M52.5 56.25C52.0523 56.25 51.6193 56.0898 51.2796 55.7977L28.125 35.9509V71.25H76.875V35.9509L53.7204 55.7977C53.3807 56.0898 52.9477 56.25 52.5 56.25Z" fill="#8C52FF"/>
<path d="M52.5 0C23.5052 0 0 23.5052 0 52.5C0 81.4948 23.5052 105 52.5 105C81.4948 105 105 81.4948 105 52.5C104.967 23.519 81.481 0.032959 52.5 0ZM80.625 73.125C80.625 74.1605 79.7855 75 78.75 75H26.25C25.2145 75 24.375 74.1605 24.375 73.125V31.875C24.375 30.8395 25.2145 30 26.25 30H78.75C79.7855 30 80.625 30.8395 80.625 31.875V73.125Z" fill="#8C52FF"/>
</svg>
