<svg width="74" height="74" viewBox="0 0 74 74" fill="none" xmlns="http://www.w3.org/2000/svg">
<circle cx="37" cy="37" r="37" fill="#8C52FF"/>
<path d="M51.4974 17.0119L43.9762 17C35.5263 17 30.0657 22.5059 30.0657 31.0278V37.4955H22.5034C21.85 37.4955 21.3208 38.0162 21.3208 38.6584V48.0294C21.3208 48.6716 21.8506 49.1917 22.5034 49.1917H30.0657V72.8377C30.0657 73.4799 30.5949 74 31.2483 74H41.1149C41.7684 74 42.2976 73.4794 42.2976 72.8377V49.1917H51.1396C51.7931 49.1917 52.3222 48.6716 52.3222 48.0294L52.3259 38.6584C52.3259 38.35 52.201 38.0547 51.9795 37.8365C51.7581 37.6183 51.4564 37.4955 51.1426 37.4955H42.2976V32.0127C42.2976 29.3775 42.9365 28.0397 46.4296 28.0397L51.4962 28.0379C52.1491 28.0379 52.6782 27.5173 52.6782 26.8757V18.1741C52.6782 17.5331 52.1497 17.013 51.4974 17.0119Z" fill="white"/>
</svg>
