<svg width="74" height="74" viewBox="0 0 74 74" fill="none" xmlns="http://www.w3.org/2000/svg">
<circle cx="37" cy="37" r="37" fill="#8C52FF"/>
<path d="M57.8137 34.7637L57.5974 33.8647H37.649V42.1353H49.5679C48.3304 47.8916 42.5882 50.9216 37.8978 50.9216C34.4851 50.9216 30.8876 49.5153 28.5065 47.255C27.2502 46.0434 26.2502 44.601 25.5638 43.0103C24.8774 41.4196 24.5179 39.7119 24.5061 37.985C24.5061 34.5012 26.1043 31.0166 28.4299 28.7244C30.7555 26.4322 34.2678 25.1497 37.76 25.1497C41.7595 25.1497 44.6258 27.23 45.6976 28.1788L51.6973 22.3325C49.9373 20.8175 45.1024 17 37.5667 17C31.7527 17 26.178 19.1816 22.103 23.1603C18.0815 27.0781 16 32.7434 16 38C16 43.2566 17.9696 48.6388 21.8666 52.5875C26.0306 56.7988 31.9279 59 38.0002 59C43.5252 59 48.762 56.8794 52.4945 53.0319C56.1637 49.2444 58.0615 44.0038 58.0615 38.51C58.0615 36.1972 57.8242 34.8237 57.8137 34.7637V34.7637Z" fill="white"/>
</svg>
