<svg width="90" height="89" viewBox="0 0 90 89" fill="none" xmlns="http://www.w3.org/2000/svg">
<g clip-path="url(#clip0)">
<path fill-rule="evenodd" clip-rule="evenodd" d="M45.0135 0C69.856 0 90.027 19.9202 90.027 44.5134C90.027 69.0798 69.883 89.0267 45.0135 89.0267C20.171 89.0267 0 69.1065 0 44.5134C0 19.9469 20.144 0 45.0135 0ZM34.4824 20.0804H55.5446C63.4563 20.0804 69.91 26.4089 69.91 34.0993V54.874C69.91 62.5911 63.4563 68.8929 55.5446 68.8929H34.4824C26.5707 68.8929 20.117 62.5911 20.117 54.874V34.0993C20.117 26.3822 26.5977 20.0804 34.4824 20.0804ZM44.8785 31.3222C52.5743 31.3222 58.8119 37.4906 58.8119 45.1008C58.8119 52.7111 52.5743 58.8794 44.8785 58.8794C37.1827 58.8794 30.9451 52.7111 30.9451 45.1008C30.9451 37.4906 37.1827 31.3222 44.8785 31.3222ZM44.8785 35.9685C49.955 35.9685 54.0864 40.054 54.0864 45.0741C54.0864 50.0942 49.955 54.1797 44.8785 54.1797C39.775 54.1797 35.6706 50.0942 35.6706 45.0741C35.6706 40.054 39.802 35.9685 44.8785 35.9685ZM58.3528 29.3996C59.595 29.3996 60.6211 30.3876 60.6211 31.6427C60.6211 32.871 59.622 33.8857 58.3528 33.8857C57.1107 33.8857 56.0846 32.8977 56.0846 31.6427C56.0846 30.4143 57.0837 29.3996 58.3528 29.3996ZM36.2106 24.0591H53.8164C60.432 24.0591 65.8326 29.3729 65.8326 35.8884V53.4053C65.8326 59.9208 60.432 65.2346 53.8164 65.2346H36.2106C29.595 65.2346 24.1944 59.9208 24.1944 53.4053V35.8884C24.1944 29.3729 29.595 24.0591 36.2106 24.0591Z" fill="#8C52FF"/>
</g>
<defs>
<clipPath id="clip0">
<rect width="90" height="89" fill="white"/>
</clipPath>
</defs>
</svg>
