<svg width="99" height="98" viewBox="0 0 99 98" fill="none" xmlns="http://www.w3.org/2000/svg">
<g clip-path="url(#clip0)">
<path fill-rule="evenodd" clip-rule="evenodd" d="M49.5149 0C76.8416 0 99.0297 21.9346 99.0297 49.0147C99.0297 76.0654 76.8713 98.0294 49.5149 98.0294C22.1881 98.0294 0 76.0948 0 49.0147C0 21.964 22.1584 0 49.5149 0ZM43.1287 39.2823H53.2871V44.4278H53.4356C54.8614 41.8992 58.3069 39.2823 63.4752 39.2823C74.198 39.2823 76.1881 45.898 76.1881 54.4836V72.0078H65.5842V56.483C65.5842 52.7783 65.495 48.015 60.0594 48.015C54.5347 48.015 53.703 52.0432 53.703 56.2184V72.0078H43.099V39.2823H43.1287ZM35.7921 30.1968C35.7921 33.1959 33.3267 35.6658 30.2673 35.6658C27.2376 35.6658 24.7426 33.2253 24.7426 30.1968C24.7426 27.1977 27.2079 24.7279 30.2673 24.7279C33.297 24.7279 35.7921 27.1683 35.7921 30.1968ZM24.7723 39.2823H35.7921V72.0078H24.7723V39.2823Z" fill="#8C52FF"/>
</g>
<defs>
<clipPath id="clip0">
<rect width="99" height="98" fill="white"/>
</clipPath>
</defs>
</svg>
