<svg width="297" height="118" viewBox="0 0 297 118" fill="none" xmlns="http://www.w3.org/2000/svg">
<circle cx="55" cy="55" r="55" fill="#8C52FF"/>
<path d="M45.75 55L55.2188 34.5H65.4688L50.5312 63.5V80H41V63.5L26.0625 34.5H36.3438L45.75 55ZM65.5625 62.7812C65.5625 59.4271 66.2083 56.4375 67.5 53.8125C68.7917 51.1875 70.6458 49.1562 73.0625 47.7188C75.5 46.2812 78.3229 45.5625 81.5312 45.5625C86.0938 45.5625 89.8125 46.9583 92.6875 49.75C95.5833 52.5417 97.1979 56.3333 97.5312 61.125L97.5938 63.4375C97.5938 68.625 96.1458 72.7917 93.25 75.9375C90.3542 79.0625 86.4688 80.625 81.5938 80.625C76.7188 80.625 72.8229 79.0625 69.9062 75.9375C67.0104 72.8125 65.5625 68.5625 65.5625 63.1875V62.7812ZM74.5938 63.4375C74.5938 66.6458 75.1979 69.1042 76.4062 70.8125C77.6146 72.5 79.3438 73.3438 81.5938 73.3438C83.7812 73.3438 85.4896 72.5104 86.7188 70.8438C87.9479 69.1562 88.5625 66.4688 88.5625 62.7812C88.5625 59.6354 87.9479 57.1979 86.7188 55.4688C85.4896 53.7396 83.7604 52.875 81.5312 52.875C79.3229 52.875 77.6146 53.7396 76.4062 55.4688C75.1979 57.1771 74.5938 59.8333 74.5938 63.4375Z" fill="white"/>
<path d="M121.938 46.1875L122.219 49.9688C124.615 47.0312 127.854 45.5625 131.938 45.5625C136.292 45.5625 139.281 47.2812 140.906 50.7188C143.281 47.2812 146.667 45.5625 151.062 45.5625C154.729 45.5625 157.458 46.6354 159.25 48.7812C161.042 50.9062 161.938 54.1146 161.938 58.4062V80H152.875V58.4375C152.875 56.5208 152.5 55.125 151.75 54.25C151 53.3542 149.677 52.9062 147.781 52.9062C145.073 52.9062 143.198 54.1979 142.156 56.7812L142.188 80H133.156V58.4688C133.156 56.5104 132.771 55.0938 132 54.2188C131.229 53.3438 129.917 52.9062 128.062 52.9062C125.5 52.9062 123.646 53.9688 122.5 56.0938V80H113.469V46.1875H121.938ZM178.438 80H169.375V46.1875H178.438V80ZM168.844 37.4375C168.844 36.0833 169.292 34.9688 170.188 34.0938C171.104 33.2188 172.344 32.7812 173.906 32.7812C175.448 32.7812 176.677 33.2188 177.594 34.0938C178.51 34.9688 178.969 36.0833 178.969 37.4375C178.969 38.8125 178.5 39.9375 177.562 40.8125C176.646 41.6875 175.427 42.125 173.906 42.125C172.385 42.125 171.156 41.6875 170.219 40.8125C169.302 39.9375 168.844 38.8125 168.844 37.4375Z" fill="#8C52FF"/>
<rect x="198.817" y="57.8349" width="42.5122" height="3.52658" rx="1.76329" transform="rotate(24.231 198.817 57.8349)" fill="#8C52FF"/>
<rect x="198.773" y="81.6992" width="42.5122" height="3.52658" rx="1.76329" transform="rotate(24.2782 198.773 81.6992)" fill="#8C52FF"/>
<rect x="198.77" y="30.1617" width="42.5122" height="3.52658" rx="1.76329" transform="rotate(24.231 198.77 30.1617)" fill="#8C52FF"/>
<rect x="192.529" y="19.3478" width="56.751" height="3.52658" rx="1.76329" transform="rotate(24.231 192.529 19.3478)" fill="#8C52FF"/>
<rect x="240.987" y="116.415" width="72.7729" height="3.579" rx="1.7895" transform="rotate(-90 240.987 116.415)" fill="#8C52FF"/>
<rect x="191.119" y="95.2994" width="75.0396" height="3.579" rx="1.7895" transform="rotate(-90 191.119 95.2994)" fill="#8C52FF"/>
<rect x="293.24" y="95.2994" width="75.0396" height="3.579" rx="1.7895" transform="rotate(-90 293.24 95.2994)" fill="#8C52FF"/>
<rect x="192.395" y="92.0783" width="56.751" height="3.52658" rx="1.76329" transform="rotate(23.2941 192.395 92.0783)" fill="#8C52FF"/>
<rect width="60.01" height="3.52658" rx="1.76329" transform="matrix(-0.911898 0.410416 0.410416 0.911898 295.353 18.6836)" fill="#8C52FF"/>
<rect width="58.1453" height="3.52658" rx="1.76329" transform="matrix(-0.918831 0.394651 0.394651 0.918831 295.588 13.2047)" fill="#8C52FF"/>
<rect width="49.8909" height="3.52658" rx="1.76329" transform="matrix(-0.918831 0.394651 0.394651 0.918831 288.371 10)" fill="#8C52FF"/>
<rect x="192.392" y="13.2047" width="58.1453" height="3.52658" rx="1.76329" transform="rotate(23.2442 192.392 13.2047)" fill="#8C52FF"/>
<rect x="199.608" y="10" width="49.8909" height="3.52658" rx="1.76329" transform="rotate(23.2442 199.608 10)" fill="#8C52FF"/>
<rect width="58.9772" height="3.52658" rx="1.76329" transform="matrix(-0.924402 0.38142 0.38142 0.924402 295.655 91.889)" fill="#8C52FF"/>
<rect width="42.5122" height="3.52658" rx="1.76329" transform="matrix(-0.911898 0.410416 0.410416 0.911898 289.297 57.8349)" fill="#8C52FF"/>
<rect width="42.5122" height="3.52658" rx="1.76329" transform="matrix(-0.91156 0.411168 0.411168 0.91156 289.402 84.0852)" fill="#8C52FF"/>
<rect width="42.5122" height="3.52658" rx="1.76329" transform="matrix(-0.911898 0.410416 0.410416 0.911898 289.344 30.1617)" fill="#8C52FF"/>
</svg>
