<svg width="49" height="45" viewBox="0 0 49 45" fill="none" xmlns="http://www.w3.org/2000/svg">
<path d="M48.9429 20.4548C48.4871 14.2817 45.0684 8.51669 39.6556 4.69037C34.2428 0.864045 27.1776 -0.717501 20.3403 0.302852C8.14722 2.1905 -0.798202 12.292 0.0564561 23.4138C0.455296 28.7707 2.96229 33.7194 7.1786 37.4947C6.09604 38.9232 5.12743 39.8415 2.56345 41.6781C2.05066 42.0353 1.82275 42.5964 1.99368 43.1576C2.10763 43.7188 2.56345 44.178 3.13322 44.331C3.98788 44.5861 5.24138 44.6882 6.66581 44.6882C9.6856 44.6882 13.5031 44.076 16.4659 42.6985C20.3973 43.9229 24.6136 44.229 28.773 43.5658C40.9661 41.6271 49.7975 31.4746 48.9429 20.4548ZM13.1042 25.9137C10.8821 25.9137 9.11583 24.3321 9.11583 22.3425C9.11583 20.3528 10.8821 18.7712 13.1042 18.7712C15.3263 18.7712 17.0926 20.3528 17.0926 22.3425C17.0926 24.3321 15.3263 25.9137 13.1042 25.9137ZM24.4997 25.9137C22.2776 25.9137 20.5113 24.3321 20.5113 22.3425C20.5113 20.3528 22.2776 18.7712 24.4997 18.7712C26.7218 18.7712 28.4881 20.3528 28.4881 22.3425C28.4881 24.3321 26.7218 25.9137 24.4997 25.9137ZM35.8951 25.9137C33.673 25.9137 31.9067 24.3321 31.9067 22.3425C31.9067 20.3528 33.673 18.7712 35.8951 18.7712C38.1172 18.7712 39.8835 20.3528 39.8835 22.3425C39.8835 24.3321 38.1172 25.9137 35.8951 25.9137Z" fill="#8C52FF"/>
</svg>
