<svg width="206" height="176" viewBox="0 0 206 176" fill="none" xmlns="http://www.w3.org/2000/svg">
<path d="M181.716 175.442H23.8018C10.7115 175.442 0.0654297 163.95 0.0654297 149.819V45.9018C0.0654297 31.7707 10.7115 20.2783 23.8018 20.2783H56.0243L58.8448 10.0072C59.9959 4.3869 64.7553 0.261719 70.3532 0.261719H135.169C140.609 0.261719 145.423 4.36563 146.697 10.0584L146.773 10.4085L149.344 20.2776H181.72C194.81 20.2776 205.456 31.77 205.456 45.9012V149.817C205.453 163.95 194.803 175.442 181.716 175.442ZM23.8018 28.8197C15.0745 28.8197 7.97777 36.4813 7.97777 45.9018V149.818C7.97777 159.239 15.0751 166.9 23.8018 166.9H181.716C190.444 166.9 197.54 159.239 197.54 149.818V45.9018C197.54 36.4806 190.443 28.8197 181.716 28.8197H143.351L139.019 12.1429C138.619 10.2039 137.001 8.79914 135.166 8.79914H70.3489C68.4856 8.79914 66.903 10.174 66.4955 12.1475L61.9226 28.8197H23.8018ZM102.765 149.626C75.077 149.626 52.5507 125.313 52.5507 95.4279C52.5507 65.5383 75.0764 41.2258 102.765 41.2258C130.446 41.2258 152.968 65.5423 152.968 95.4279C152.967 125.31 130.446 149.626 102.765 149.626ZM102.765 49.7625C79.44 49.7625 60.4631 70.2442 60.4631 95.4239C60.4631 120.604 79.4406 141.081 102.765 141.081C126.086 141.081 145.056 120.599 145.056 95.4239C145.055 70.2442 126.082 49.7625 102.765 49.7625ZM176.609 44.6718C172.574 44.6718 169.31 48.2036 169.31 52.5514C169.31 56.9032 172.573 60.4303 176.609 60.4303C180.64 60.4303 183.904 56.9025 183.904 52.5514C183.9 48.2036 180.636 44.6718 176.609 44.6718Z" fill="#8C52FF"/>
</svg>
