<svg width="99" height="98" viewBox="0 0 99 98" fill="none" xmlns="http://www.w3.org/2000/svg">
<g clip-path="url(#clip0)">
<path fill-rule="evenodd" clip-rule="evenodd" d="M49.5149 0C76.8416 0 99.0297 21.9346 99.0297 49.0147C99.0297 76.0654 76.8713 98.0294 49.5149 98.0294C22.1881 98.0294 0 76.0948 0 49.0147C0 21.964 22.1584 0 49.5149 0ZM76.2475 32.5785C74.2871 33.4605 72.1782 34.0192 69.9505 34.2838C72.2079 32.9313 73.9604 30.8143 74.7624 28.2856C72.6535 29.5206 70.2772 30.432 67.8119 30.9319C65.7921 28.8149 62.9703 27.5212 59.7921 27.5212C53.7327 27.5212 48.8317 32.3726 48.8317 38.3708C48.8317 39.2235 48.9208 40.0468 49.099 40.8407C39.9802 40.3702 31.901 36.0774 26.495 29.4911C25.5149 31.1377 25.0099 33.0195 25.0099 34.9601C25.0099 38.7237 26.9406 42.0462 29.8812 43.9868C28.0693 43.928 26.4059 43.4281 24.9208 42.6343V42.7813C24.9208 48.0444 28.6931 52.4254 33.7129 53.4251C32.7921 53.6604 31.8119 53.8074 30.8317 53.8074C30.1188 53.8074 29.4356 53.7486 28.7525 53.6016C30.1485 57.9238 34.1881 61.0405 39 61.1581C35.2277 64.069 30.5347 65.8038 25.3663 65.8038C24.4752 65.8038 23.6139 65.745 22.7525 65.6568C27.6238 68.7441 33.3861 70.5377 39.5644 70.5377C59.7327 70.5377 70.7822 53.9838 70.7822 39.6352C70.7822 39.1647 70.7822 38.6943 70.7525 38.2238C72.8911 36.6949 74.7624 34.7837 76.2178 32.6079L76.2475 32.5785Z" fill="#8C52FF"/>
</g>
<defs>
<clipPath id="clip0">
<rect width="99" height="98" fill="white"/>
</clipPath>
</defs>
</svg>
