<svg width="105" height="105" viewBox="0 0 105 105" fill="none" xmlns="http://www.w3.org/2000/svg">
<g clip-path="url(#clip0)">
<path fill-rule="evenodd" clip-rule="evenodd" d="M52.5157 0C81.4986 0 105.031 23.5013 105.031 52.5157C105.031 81.4986 81.5302 105.031 52.5157 105.031C23.5329 105.031 0 81.5302 0 52.5157C0 23.5329 23.5013 0 52.5157 0ZM74.568 29.991C69.0549 24.4779 61.7462 21.4536 53.9334 21.4536C37.8668 21.4536 24.793 34.5275 24.793 50.5941C24.793 55.7291 26.1476 60.7381 28.6994 65.1485L24.5725 80.27L40.0405 76.2061C44.2934 78.5373 49.0819 79.766 53.9649 79.766C70.0315 79.766 83.1053 66.6922 83.1053 50.6256C83.1053 42.8443 80.081 35.504 74.568 29.991ZM53.9649 74.8515C49.6175 74.8515 45.333 73.6859 41.6157 71.4806L40.7336 70.9451L31.5662 73.3393L34.0234 64.3924L33.4563 63.4788C31.0306 59.6355 29.739 55.162 29.739 50.5941C29.739 37.2367 40.6076 26.3681 53.9964 26.3681C60.4545 26.3681 66.5662 28.8884 71.1341 33.4563C75.7021 38.0558 78.2223 44.1044 78.2223 50.5941C78.2223 63.9514 67.3537 74.8515 53.9964 74.8515H53.9649ZM67.2592 56.7057C66.5347 56.3276 62.9433 54.595 62.2817 54.3429C61.6202 54.0909 61.1161 53.9649 60.6436 54.721C60.171 55.4455 58.7534 57.0837 58.3438 57.5878C57.9028 58.0603 57.4932 58.1548 56.7687 57.7768C56.0441 57.3987 53.6814 56.6427 50.9091 54.1539C48.7354 52.2322 47.2862 49.838 46.8452 49.1134C46.4041 48.3888 46.7822 47.9793 47.1602 47.6328C47.5067 47.3177 47.8848 46.7822 48.2628 46.3411C48.6409 45.9001 48.7354 45.6166 48.9874 45.1125C49.2394 44.64 49.1134 44.1989 48.9244 43.8209C48.7354 43.4428 47.2862 39.883 46.6877 38.4023C46.0891 36.9847 45.4905 37.1737 45.0495 37.1422C44.6085 37.1107 44.1359 37.1107 43.6634 37.1107C43.1908 37.1107 42.4032 37.2997 41.7102 38.0243C41.0486 38.7489 39.1584 40.5131 39.1584 44.1044C39.1584 47.6958 41.7732 51.1611 42.1197 51.6337C42.4977 52.1062 47.2547 59.4779 54.5635 62.6283C56.2961 63.3843 57.6508 63.8254 58.7219 64.1719C60.4545 64.7075 62.0612 64.6445 63.3213 64.4554C64.7075 64.2349 67.6373 62.6913 68.2358 60.9901C68.8344 59.2889 68.8344 57.8398 68.6769 57.5247C68.5193 57.2097 68.0153 57.0207 67.2907 56.6427L67.2592 56.7057Z" fill="#8C52FF"/>
</g>
<defs>
<clipPath id="clip0">
<rect width="105" height="105" fill="white"/>
</clipPath>
</defs>
</svg>
