<svg width="99" height="98" viewBox="0 0 99 98" fill="none" xmlns="http://www.w3.org/2000/svg">
<g clip-path="url(#clip0)">
<path fill-rule="evenodd" clip-rule="evenodd" d="M49.5149 0C76.8416 0 99.0297 21.9346 99.0297 49.0147C99.0297 76.0654 76.8713 98.0294 49.5149 98.0294C22.1881 98.0294 0 76.0948 0 49.0147C0 21.964 22.1584 0 49.5149 0ZM76.6337 38.0474C76.6337 38.0474 76.099 34.2544 74.4356 32.6079C72.3267 30.432 69.9505 30.4026 68.8812 30.285C61.1287 29.7264 49.5149 29.7264 49.5149 29.7264H49.4851C49.4851 29.7264 37.8416 29.7264 30.1188 30.285C29.0495 30.4026 26.6733 30.432 24.5644 32.6079C22.901 34.2544 22.3663 38.0474 22.3663 38.0474C22.3663 38.0474 21.802 42.4872 21.802 46.9271V51.0729C21.802 55.5127 22.3663 59.9526 22.3663 59.9526C22.3663 59.9526 22.901 63.7456 24.5644 65.3921C26.6733 67.568 29.4356 67.5091 30.6832 67.7444C35.1089 68.156 49.5149 68.303 49.5149 68.303C49.5149 68.303 61.1584 68.2736 68.9109 67.7444C69.9802 67.6268 72.3564 67.5974 74.4653 65.4215C76.1287 63.775 76.6634 59.982 76.6634 59.982C76.6634 59.982 77.2277 55.5422 77.2277 51.1023V46.9565C77.2277 42.5167 76.6634 38.0768 76.6634 38.0768L76.6337 38.0474ZM43.7525 56.1302V40.7231L58.7228 48.456L43.7525 56.1302Z" fill="#8C52FF"/>
</g>
<defs>
<clipPath id="clip0">
<rect width="99" height="98" fill="white"/>
</clipPath>
</defs>
</svg>
